<svg width="116" height="114" viewBox="0 0 116 114" fill="none" xmlns="http://www.w3.org/2000/svg">
<rect width="116" height="114" rx="57" fill="white"/>
<path d="M59.76 103.92C50.8853 103.92 42.9493 101.915 35.952 97.904C28.9547 93.8933 23.4507 88.3467 19.44 81.264C15.5147 74.1813 13.552 66.16 13.552 57.2C13.552 48.24 15.5147 40.2187 19.44 33.136C23.4507 26.0533 28.9547 20.5067 35.952 16.496C42.9493 12.4853 50.8853 10.48 59.76 10.48C67.3547 10.48 74.2667 12.0587 80.496 15.216C86.8107 18.288 91.9307 22.64 95.856 28.272C99.7813 33.904 102.171 40.3893 103.024 47.728H91.376C90.4373 42.4373 88.5173 37.872 85.616 34.032C82.7147 30.1067 79.0453 27.0773 74.608 24.944C70.1707 22.8107 65.1787 21.744 59.632 21.744C52.976 21.744 47.0453 23.2373 41.84 26.224C36.6347 29.2107 32.5813 33.392 29.68 38.768C26.864 44.144 25.456 50.288 25.456 57.2C25.456 64.0267 26.864 70.128 29.68 75.504C32.5813 80.88 36.6347 85.0613 41.84 88.048C47.0453 91.0347 52.976 92.528 59.632 92.528C65.1787 92.528 70.1707 91.504 74.608 89.456C79.0453 87.3227 82.7147 84.336 85.616 80.496C88.5173 76.5707 90.4373 71.9627 91.376 66.672H103.024C102.171 74.0107 99.7813 80.496 95.856 86.128C91.9307 91.76 86.8107 96.1547 80.496 99.312C74.2667 102.384 67.3547 103.92 59.76 103.92Z" fill="black"/>
<path d="M41.8 70L50.472 47.6H53.992L62.6 70H58.92L53.8 56.496C53.736 56.3467 53.608 55.984 53.416 55.408C53.2453 54.832 53.0427 54.192 52.808 53.488C52.5733 52.784 52.36 52.144 52.168 51.568C51.976 50.9707 51.848 50.5867 51.784 50.416L52.52 50.384C52.392 50.7467 52.232 51.2053 52.04 51.76C51.8693 52.3147 51.6773 52.9013 51.464 53.52C51.272 54.1387 51.08 54.7253 50.888 55.28C50.696 55.8133 50.536 56.2613 50.408 56.624L45.32 70H41.8ZM45.64 64.432L46.92 61.104H57.096L58.568 64.432H45.64ZM65.7103 70V66.8H69.3263V50.8H65.7103V47.6H76.3983V50.8H72.7823V66.8H76.3983V70H65.7103Z" fill="black"/>
</svg>
